<svg xmlns="http://www.w3.org/2000/svg" viewBox="0 0 199.76 41.23"><title>logo</title><g id="Layer_2" data-name="Layer 2"><g id="Layer_1-2" data-name="Layer 1"><path d="M20.67,0A22.29,22.29,0,0,1,30.85,2.29a19,19,0,0,1,8.68,8.76,21.86,21.86,0,0,1,2,12.1,20.13,20.13,0,0,1-3.84,10.08,18.85,18.85,0,0,1-7,5.81,22.37,22.37,0,0,1-10.85,2.17A20.87,20.87,0,0,1,8.1,37.3a19.13,19.13,0,0,1-6.94-9.5A22.46,22.46,0,0,1,.1,18.49,20.24,20.24,0,0,1,4,8a19.1,19.1,0,0,1,8-6.28A22.52,22.52,0,0,1,20.67,0ZM6.18,20.55A14.68,14.68,0,1,0,21.39,5.9,14.65,14.65,0,0,0,6.18,20.55Z" fill="#030c57"/><path d="M118.9,17.85a7.59,7.59,0,0,1,1.8-1.48,4.83,4.83,0,0,1,4.43-.29,4.1,4.1,0,0,1,2,2.13,4.43,4.43,0,0,1,.2.45c.08,0,.11,0,.13-.08,1.3-2.29,3.37-3,5.87-2.86a4.83,4.83,0,0,1,4.09,2.4,6.27,6.27,0,0,1,.87,3.21c0,3.6,0,7.19,0,10.79,0,.25-.08.29-.31.29-1.09,0-2.19,0-3.29,0-.33,0-.37-.11-.37-.4q0-4.89,0-9.79a5.75,5.75,0,0,0-.24-1.88,2.48,2.48,0,0,0-2.65-1.56A2.86,2.86,0,0,0,128.76,22q0,5,0,10c0,.39-.09.48-.47.47q-1.5,0-3,0c-.39,0-.53-.06-.52-.5,0-3.22,0-6.44,0-9.67a7,7,0,0,0-.15-1.65A2.36,2.36,0,0,0,122,18.77a4.11,4.11,0,0,0-2.74,1.49c-.13.14-.08.29-.08.44q0,5.64,0,11.28c0,.35-.08.44-.43.43-1.07,0-2.14,0-3.2,0-.27,0-.35-.06-.35-.34V16.28c0-.29.08-.37.37-.36.65,0,1.3,0,2,0a1,1,0,0,1,1.15,1C118.74,17.18,118.81,17.49,118.9,17.85Z" fill="#030c57"/><path d="M92,17.86a7.12,7.12,0,0,1,1.9-1.55c2.28-1.17,5.22-.86,6.44,2.12,0,.09.08.16.14.29a6,6,0,0,1,1.08-1.46,6.16,6.16,0,0,1,5.49-1.46,4.7,4.7,0,0,1,3.56,2.45,6.17,6.17,0,0,1,.78,3c0,3.63,0,7.25,0,10.87,0,.24-.07.3-.3.3-1.11,0-2.22,0-3.33,0-.3,0-.33-.1-.33-.35,0-3.29,0-6.58,0-9.87a5.05,5.05,0,0,0-.25-1.85,2.46,2.46,0,0,0-2.57-1.57,2.79,2.79,0,0,0-2.77,2.84c0,.21,0,.42,0,.63q0,4.89,0,9.78c0,.32-.07.4-.39.39-1.07,0-2.14,0-3.2,0-.35,0-.4-.11-.4-.42q0-4.89,0-9.78a5.89,5.89,0,0,0-.19-1.73,2.37,2.37,0,0,0-2.78-1.7,4.32,4.32,0,0,0-2.58,1.48c-.13.14-.08.31-.08.47,0,3.75,0,7.5,0,11.24,0,.34,0,.45-.41.44-1.07,0-2.14,0-3.21,0-.27,0-.34-.07-.34-.34q0-7.89,0-15.79c0-.29.07-.38.37-.37.63,0,1.27,0,1.91,0a1.06,1.06,0,0,1,1.2,1Z" fill="#030c57"/><path d="M59.67,8.9a10.17,10.17,0,0,1,6.4,2.21.4.4,0,0,1,.12.61c-.28.47-.52,1-.78,1.46-.52,1-1,1.11-2,.51a7.2,7.2,0,0,0-2.69-1.14,5.33,5.33,0,0,0-3,.27,2.57,2.57,0,0,0-1.69,2.48,2.36,2.36,0,0,0,1.47,2.26,22.59,22.59,0,0,0,3.57,1.35,13.26,13.26,0,0,1,3.17,1.42,5.34,5.34,0,0,1,2.49,4.83,7.21,7.21,0,0,1-6.65,7.41,11,11,0,0,1-8.75-2.69c-.22-.19-.28-.33-.1-.6.35-.51.65-1.06,1-1.59a1.19,1.19,0,0,1,1.81-.42,14.32,14.32,0,0,0,2.52,1.45,5.86,5.86,0,0,0,4.3,0,2.83,2.83,0,0,0,1.81-2.52,2.6,2.6,0,0,0-1.38-2.79,10.3,10.3,0,0,0-2.15-.87,33.48,33.48,0,0,1-3.49-1.21A5.76,5.76,0,0,1,52.07,15a6.7,6.7,0,0,1,5.86-5.91C58.51,9,59.09,9,59.67,8.9Z" fill="#030c57"/><path d="M76.94,15.67a8.08,8.08,0,0,1,6.43,2.65,7.82,7.82,0,0,1,1.74,3.94,10.37,10.37,0,0,1-.49,5.57,7.27,7.27,0,0,1-6.21,4.73,8.71,8.71,0,0,1-5.4-.89,7.21,7.21,0,0,1-3.77-5.16,9.94,9.94,0,0,1,.85-7,7.18,7.18,0,0,1,5.4-3.67C76,15.73,76.6,15.71,76.94,15.67Zm4.24,8.4a9.9,9.9,0,0,0-.1-1.45,5,5,0,0,0-1.2-2.86,3.94,3.94,0,0,0-6.45,1.66,9.71,9.71,0,0,0,0,5.5,3.4,3.4,0,0,0,2.06,2.39,5,5,0,0,0,2.51.21,3.24,3.24,0,0,0,2.66-2.18A8.42,8.42,0,0,0,81.18,24.07Z" fill="#030c57"/><path d="M193.93,24.66h-5c-.27,0-.36,0-.32.34a9.82,9.82,0,0,0,.42,1.86,4,4,0,0,0,3.76,2.72,6.11,6.11,0,0,0,3.32-.78c.34-.18.67-.38,1-.53a1,1,0,0,1,1.34.35c.29.36.56.74.86,1.08s.16.32,0,.51a7.34,7.34,0,0,1-3.55,2.05,10.31,10.31,0,0,1-5.59,0,7,7,0,0,1-4.78-4.39,9.61,9.61,0,0,1,.28-8.28,7.18,7.18,0,0,1,5.92-3.89,8,8,0,0,1,4,.52,6.44,6.44,0,0,1,3.81,4.49,8.46,8.46,0,0,1,.26,3.09c-.07.62-.3.82-.92.83Zm-1.48-2.38h3.41c.13,0,.35.09.33-.18A3.79,3.79,0,0,0,195,19.26a4,4,0,0,0-5.31.63,5.71,5.71,0,0,0-.86,2.05c-.06.32,0,.35.29.34C190.2,22.27,191.32,22.28,192.45,22.28Z" fill="#030c57"/><path d="M151.15,30.37a9.15,9.15,0,0,1-2.3,1.62,6.85,6.85,0,0,1-5.72.11,4.21,4.21,0,0,1-.62-7,10.21,10.21,0,0,1,4.56-1.76,22.65,22.65,0,0,1,3.39-.35c.13,0,.33.07.33-.19a6.81,6.81,0,0,0-.23-2.34,2.49,2.49,0,0,0-2.7-1.69,5.54,5.54,0,0,0-2.6.77c-.33.18-.65.38-1,.53a1.35,1.35,0,0,1-1.86-.57c-.21-.34-.39-.71-.59-1a.24.24,0,0,1,.07-.38,9.73,9.73,0,0,1,5.19-2.32,7.81,7.81,0,0,1,4,.37,5.45,5.45,0,0,1,3.38,4.18,7.89,7.89,0,0,1,.18,1.81c0,3.31,0,6.61,0,9.92,0,.29,0,.41-.38.39-.53,0-1.08,0-1.62,0a1.08,1.08,0,0,1-1.17-.91C151.37,31.13,151.27,30.77,151.15,30.37Zm-.36-3.57c0-.38,0-.75,0-1.12s-.07-.31-.31-.3a18.79,18.79,0,0,0-3.09.39,4.9,4.9,0,0,0-2,.82,1.85,1.85,0,0,0-.65,2,1.55,1.55,0,0,0,1.37,1.27,4.67,4.67,0,0,0,4-1.06,1.38,1.38,0,0,0,.67-1.39A2.81,2.81,0,0,1,150.79,26.8Z" fill="#030c57"/><path d="M179.64,25.69c0,2.11,0,4.22,0,6.33,0,.3,0,.4-.37.39q-1.61,0-3.21,0c-.34,0-.41-.09-.41-.41,0-4.2,0-8.39,0-12.58,0-.42-.12-.55-.5-.58a4.7,4.7,0,0,1-1.23-.24.88.88,0,0,1-.72-1c0-.39,0-.78,0-1.17s.1-.36.37-.35c.56,0,1.12,0,1.67,0,.37,0,.43-.1.42-.43a8.83,8.83,0,0,1,.27-2.85,5.37,5.37,0,0,1,5-4,8.39,8.39,0,0,1,2.69.17c.25.06.33.16.31.43-.05.48,0,1-.06,1.45s-.23.8-.81.87c-.35,0-.72.05-1.08.07a2.37,2.37,0,0,0-2.42,2.3c-.07.56-.05,1.11-.07,1.67,0,.25.09.29.32.29h3.62c.28,0,.39.05.37.35,0,.73,0,1.45,0,2.17,0,.26-.06.33-.32.32-1.14,0-2.28,0-3.41,0-.39,0-.44.11-.44.46Q179.65,22.53,179.64,25.69Z" fill="#030c57"/><path d="M162.39,20.49q0,5.75,0,11.49c0,.35-.07.44-.42.43-1.06,0-2.11,0-3.17,0-.29,0-.4,0-.4-.38q0-11.55,0-23.11c0-.29.09-.37.38-.36,1.06,0,2.13,0,3.2,0,.32,0,.41.06.41.4C162.39,12.8,162.39,16.65,162.39,20.49Z" fill="#030c57"/><path d="M170.47,24.16c0,2.62,0,5.24,0,7.87,0,.31-.08.39-.39.38-1.1,0-2.19,0-3.29,0-.25,0-.33-.06-.33-.32q0-7.92,0-15.83c0-.27.07-.35.34-.34,1.1,0,2.19,0,3.29,0,.3,0,.37.08.37.37C170.47,18.91,170.47,21.53,170.47,24.16Z" fill="#030c57"/><path d="M166,11.1a2.55,2.55,0,0,1,2.48-2.51A2.59,2.59,0,0,1,171,11.12a2.54,2.54,0,0,1-2.59,2.49A2.49,2.49,0,0,1,166,11.1Z" fill="#030c57"/><path d="M23.56,8a18.93,18.93,0,0,0-3.28-.08,10.2,10.2,0,0,0-5.32,2,13.23,13.23,0,0,0-4.84,6.59,12.62,12.62,0,0,0-.35,5.73,10.25,10.25,0,0,0,2.56,5.54,11.18,11.18,0,0,0,5.13,3.33,9.09,9.09,0,0,0,6.37-.46A7.12,7.12,0,0,0,26,29.1c.08-.08.19-.15.12-.28s-.19-.11-.3-.1a3,3,0,0,0-1,.4,7.46,7.46,0,0,1-4.29.68,2.42,2.42,0,0,1-.89-.34c-.19-.12-.34-.26-.27-.5s.28-.23.48-.22c.58,0,1.16.06,1.74.07a.83.83,0,0,0,.92-.56c.08-.24,0-.32-.23-.25A3,3,0,0,1,20,27.63a4.69,4.69,0,0,0-.68-.31,2.28,2.28,0,0,0-2.69.6c-.67.7-1.19.81-1.83.44a2.31,2.31,0,0,1-.72-.74c-.12-.16,0-.27.11-.37a24.71,24.71,0,0,1,4.73-2.59A10.78,10.78,0,0,1,22,23.92a7.72,7.72,0,0,1,4.81,1.56c.77.51,1.51,1.09,2.32,1.55a5.67,5.67,0,0,0,2.11.71c.46.07.49.12.25.51a11.25,11.25,0,0,1-3.6,3.63A12.31,12.31,0,0,1,20.47,34a12,12,0,0,1-7.13-2.62,14.52,14.52,0,0,1-4.79-7,13.09,13.09,0,0,1,.1-8.07,13.53,13.53,0,0,1,3.74-5.9,11.46,11.46,0,0,1,5.36-2.8,10.38,10.38,0,0,1,5.58.21Z" fill="#fe8a08"/></g></g></svg>